# xmcd
#
# Track frame offsets:
#	150
#	21374
#	39379
#	65128
#	84956
#	106108
#	134951
#	155422
#	182164
#	205031
#
# Disc length: 3037 seconds
#
# Revision: 0
# Processed by: cddbd v1.5.2PL0 Copyright (c) Steve Scherf et al.
# Submitted via: FairStars CD Ripper 1.90
#
DISCID=870bdb0a
DTITLE=Sister Blue - In Love - 2818
DYEAR=2016
DGENRE=Blues
TTITLE0=Storywriter
TTITLE1=Sun's gonna go
TTITLE2=As long as I can breathe
TTITLE3=Sister Blue
TTITLE4=Lay Down
TTITLE5=Whisper my name
TTITLE6=Master of your mind
TTITLE7=Knocked off
TTITLE8=One more little lifetime
TTITLE9=Better off
EXTD=
EXTT0=
EXTT1=
EXTT2=
EXTT3=
EXTT4=
EXTT5=
EXTT6=
EXTT7=
EXTT8=
EXTT9=
PLAYORDER=
